<svg width="401" height="309" fill="none" xmlns="http://www.w3.org/2000/svg"><path d="m147.899 110.387-23.317 45.605 64.039 24.854 29.712-58.122-70.434-12.337ZM80.2 242.796l23.317-45.606 57.629 37.371-29.726 58.123-51.22-49.888Zm44.216-86.472-20.802 40.673 57.85 36.929 26.977-52.748-64.025-24.854Z" fill="#3B4863"/><path d="m218.333 122.724 1.754 1.34-29.546 57.777-1.934-.995 29.726-58.122Zm-29.892 58.454 1.934.981-27.019 52.844-1.934-.98s26.991-52.928 27.019-52.845Zm-27.295 53.383 1.809.926-29.809 58.288-1.809-.926s29.754-58.453 29.809-58.288Z" fill="#8992A2"/><path d="m149.736 114.324 63.293 12.213m-65.544-7.819 63.292 12.213m-65.544-7.806 62.989 12.793m-65.241-8.4 62.934 12.918m-65.185-8.511 62.519 13.719m-64.771-9.325 62.229 14.299m-64.48-9.892 61.276 16.15m-63.528-11.757 60.447 17.781m-62.698-13.374 59.507 19.632m-61.759-15.224 58.803 21.013M84.703 241.483l46.952 44.182m-44.7-48.589 46.951 44.182m-44.7-48.575 47.242 43.602m-44.99-48.01 47.297 43.492M93.71 223.882l47.711 42.663m-45.46-47.07 48.001 42.096m-45.749-46.489 48.954 40.231m-46.703-44.639 49.783 38.615m-47.531-43.008 50.722 36.763m-48.485-41.17 51.455 35.382m-30.541-76.263 57.615 23.238m-59.867-18.844 57.546 23.942m-59.797-19.535 57.435 23.873m-59.687-19.466 56.897 24.909m-59.148-20.516 56.206 25.145m-58.458-20.738 56.013 26.651m-58.265-22.257 55.184 28.281m-57.435-23.874 54.245 30.132m-56.483-25.738 53.513 31.527" stroke="#646E83" stroke-width=".47" stroke-miterlimit="10" stroke-linecap="round"/><path d="M50.64 99.97c24.93 0 45.141-20.214 45.141-45.15 0-24.935-20.21-45.15-45.142-45.15-24.93 0-45.141 20.215-45.141 45.15 0 24.936 20.21 45.15 45.142 45.15Zm190.568-60.36c0-10.21 8.454-18.444 18.731-18.085h.538c9.311.58 16.742 8.358 16.935 17.684a17.883 17.883 0 0 1-3.453 11.025c-3.522 4.863-5.622 10.624-5.622 16.647v.18h-18.081c0-3.012-.498-5.982-1.437-8.814a28.544 28.544 0 0 0-4.116-7.93 18.033 18.033 0 0 1-3.523-10.735l.028.027Z" fill="#FFA929"/><path d="M259.317 85.007a6.286 6.286 0 0 0 6.285-6.286 6.286 6.286 0 1 0-6.285 6.286Z" fill="#50545F"/><path d="M265.063 73.596h-11.492a2.75 2.75 0 0 0 0 5.499h11.492a2.75 2.75 0 0 0 0-5.5Z" fill="#7D7D7D"/><path d="M266.238 70.128h-13.841a2.224 2.224 0 0 0-2.224 2.225v.013c0 1.229.995 2.225 2.224 2.225h13.841a2.223 2.223 0 0 0 2.223-2.225v-.013a2.223 2.223 0 0 0-2.223-2.225Z" fill="#50545F"/><path d="M256.651 65.68 252.3 51.85a1.4 1.4 0 0 1 1.34-1.824h11.354c.926 0 1.603.885 1.354 1.783l-3.895 13.87" stroke="#fff" stroke-width="1.5" stroke-miterlimit="10"/><path d="M266.61 64.878h-14.6a2.75 2.75 0 0 0 0 5.499h14.6a2.749 2.749 0 1 0 0-5.499Z" fill="#7D7D7D"/><path d="M259.317 18.126v-7.668m15.167 13.415 5.429-5.415m-35.777 5.415-5.415-5.415m41.813 16.205h7.667m-57.505 0h7.666m1.755 12.697-6.686 3.758m45.556-3.786 6.644 3.813" stroke="#FFA929" stroke-width="2" stroke-linecap="round" stroke-linejoin="round"/><path d="M26.093 136.098c8.682 0 15.72-7.039 15.72-15.723 0-8.683-7.038-15.722-15.72-15.722-8.681 0-15.72 7.039-15.72 15.722 0 8.684 7.039 15.723 15.72 15.723Z" fill="#FAE0C4"/><path d="M25.062 125.69h1.751v-11.849h-1.19l-3.519 1.836.578 1.394 2.38-1.105v9.724Z" fill="#50545F"/><path d="M76.512 286.895c8.681 0 15.72-7.039 15.72-15.722s-7.038-15.722-15.72-15.722-15.72 7.039-15.72 15.722 7.038 15.722 15.72 15.722Z" fill="#FAE0C4"/><path d="M80.783 273.766v1.649h-7.684v-1.7c2.482-2.482 4.25-3.995 5.321-5.593 1.071-1.598-.119-3.026-1.581-3.026-1.377 0-1.819.816-2.176 1.564l-1.564-.782c.782-1.598 1.972-2.482 3.672-2.482 1.7 0 3.536.884 3.791 3.213.238 2.108-1.853 3.927-3.196 5.27l-1.921 1.887h5.338Zm-54.97-103.711v-3.157h1.573c.89 0 2.54-.473 2.54-2.365 0-1.892-1.65-2.42-2.661-2.42H24.69v7.931l1.122.011Zm.033-6.842h1.506c.33 0 1.42.066 1.42 1.265 0 1.199-.957 1.353-1.441 1.353-.32 0-1.056.022-1.508.033l.023-2.651Zm9.81 6.853h1.167v-7.931h-1.155v3.322H31.85v-3.267h-1.166v7.865h1.166v-3.575h3.817l-.011 3.586Zm6.306.22c2.233 0 4.048-1.87 4.048-4.169 0-2.299-1.815-4.169-4.048-4.169-2.244 0-4.059 1.87-4.059 4.169 0 2.299 1.815 4.169 4.06 4.169Zm.011-1.144c-1.595 0-2.882-1.386-2.882-3.014 0-1.639 1.287-3.036 2.882-3.036 1.606 0 2.882 1.397 2.882 3.036 0 1.628-1.287 3.014-2.882 3.014Zm6.687.924h1.199v-6.842h2.178v-1.111H46.46v1.111h2.2v6.842Zm8.094.22c2.233 0 4.048-1.87 4.048-4.169 0-2.299-1.815-4.169-4.048-4.169-2.244 0-4.059 1.87-4.059 4.169 0 2.299 1.815 4.169 4.06 4.169Zm.011-1.144c-1.595 0-2.882-1.386-2.882-3.014 0-1.639 1.287-3.036 2.882-3.036 1.606 0 2.882 1.397 2.882 3.036 0 1.628-1.287 3.014-2.882 3.014Zm6.099.913h-1.177v-7.854h1.353l3.729 5.797v-5.797h1.166v7.865h-1.133l-3.938-6.105v6.094Zm7.044-2.42c.21.902.935 1.441 1.584 1.507.913.088 1.595-.385 1.65-1.177.066-.902-.869-1.32-2.376-1.815-1.034-.341-1.716-1.188-1.66-2.156.043-.858.626-1.705 1.792-1.969s2.52.055 3.157 1.496l-1.023.484c-.429-1.023-1.33-1.166-2.068-.858-.715.308-.77.847-.67 1.199.131.429.692.748 1.154.891 1.826.671 2.827 1.166 2.86 2.64.033 1.463-1.034 2.255-2.486 2.332-1.452.077-2.75-.737-3.003-2.211l1.09-.363Z" fill="#50545F"/><path d="M83 156H15v18h68v-18Z" stroke="#FAE0C4" stroke-miterlimit="10"/><path d="M100.285 171.756c-3.247-4.435 3.439-9.326.193-13.761-3.246-4.434-9.932.47-13.178-3.965-3.246-4.435 3.44-9.325.193-13.76-3.246-4.435-9.931.47-13.177-3.965-3.247-4.435 3.44-9.34.18-13.774-3.247-4.435-9.933.469-13.193-3.979m48.596 39.43c-3.247-4.435 3.439-9.326.193-13.761-3.246-4.434-9.932.47-13.178-3.965-3.246-4.434 3.44-9.325.194-13.76-3.247-4.435-9.932.47-13.178-3.965-3.247-4.435 3.44-9.339.18-13.774-3.247-4.435-9.933.469-13.192-3.979m51.122 42.704c-3.246-4.435 3.44-9.326.194-13.761-3.246-4.434-9.932.47-13.178-3.965-3.246-4.434 3.439-9.325.193-13.76-3.246-4.435-9.931.47-13.177-3.965-3.247-4.435 3.439-9.339.18-13.774-3.247-4.435-9.933.47-13.193-3.98" stroke="#FFA929" stroke-width="2" stroke-linecap="round" stroke-linejoin="round"/><path d="M153.48 286.13h213.664v-39.568" stroke="#50545F" stroke-width="2" stroke-linecap="round" stroke-linejoin="round"/><path d="m357.295 253.917 9.849-9.85 9.849 9.975" stroke="#50545F" stroke-width="2" stroke-linecap="round" stroke-linejoin="round"/><path d="M382.228 158.962h-79.523a4.752 4.752 0 0 0-4.752 4.753v58.426a4.752 4.752 0 0 0 4.752 4.753h79.523a4.753 4.753 0 0 0 4.752-4.753v-58.426a4.753 4.753 0 0 0-4.752-4.753Z" fill="#D3D4D7"/><path d="M349.615 226.866h6.146v7.046c0 .622-.497 1.119-1.118 1.119h-3.91a1.114 1.114 0 0 1-1.118-1.119v-7.046Zm9.158 0h6.243v5.305a.713.713 0 0 1-.718.719h-4.807a.713.713 0 0 1-.718-.719v-5.305Zm8.039 0h6.244v5.305a.714.714 0 0 1-.719.719h-4.807a.714.714 0 0 1-.718-.719v-5.305Z" fill="#50545F"/><path d="M257.245 265.467c8.682 0 15.72-7.039 15.72-15.722s-7.038-15.722-15.72-15.722-15.719 7.039-15.719 15.722 7.037 15.722 15.719 15.722Z" fill="#FAE0C4"/><path d="M253.632 252.391c.561 1.309 1.496 2.924 3.91 2.924 2.533 0 4.063-1.598 4.063-3.689s-1.921-2.805-2.074-2.805c.119 0 1.836-.714 1.615-2.805-.255-2.346-2.431-3.026-3.842-2.975-1.411.051-2.72.935-3.332 2.397l1.53.731c.442-.952 1.037-1.496 1.972-1.496.884 0 1.819.442 1.921 1.445.136 1.241-.51 2.04-2.941 2.04v1.547c2.108-.204 3.349.51 3.349 1.989 0 1.071-.901 1.972-2.227 1.972-1.105 0-1.904-.731-2.312-1.887l-1.632.612Z" fill="#50545F"/><path d="M216.173 272.183c0 2.321 1.892 4.037 4.092 4.037 1.694 0 3.344-1.188 3.784-2.563l-1.199-.341c-.33.869-1.1 1.738-2.574 1.738-1.595 0-2.893-1.166-2.893-2.871 0-1.859 1.166-3.025 2.893-3.025 1.276 0 2.09.847 2.541 1.705l1.199-.275c-.616-1.485-2.068-2.552-3.751-2.552a4.124 4.124 0 0 0-4.092 4.147Zm8.54 1.122c0 1.584 1.254 2.937 2.893 2.937 1.628 0 2.882-1.353 2.882-2.937a2.855 2.855 0 0 0-2.882-2.871 2.857 2.857 0 0 0-2.893 2.871Zm1.177.011c0-1.1.836-1.848 1.727-1.848.891 0 1.716.748 1.716 1.848 0 1.166-.825 1.87-1.716 1.87s-1.727-.704-1.727-1.87Zm9.441 2.739h1.111v-5.456h-1.177v3.311c0 .462-.473 1.287-1.287 1.287-1.1 0-1.309-.77-1.309-1.353v-3.234h-1.177v3.377c0 .484.176 2.222 2.068 2.222.979 0 1.595-.506 1.716-.825l.055.671Zm2.305-.022v-5.379h1.089v.803c.176-.429.44-.693.979-.891.396-.143.979-.11 1.353.11l-.308.979c-.44-.209-1.265-.033-1.683.44-.374.429-.341.869-.341 2.299v1.65l-1.089-.011Zm5.972.154c.704-.099 1.243-.506 1.485-.847l.044.704 1.1.011-.033-3.608c-.011-.693-.462-1.518-1.342-1.848-.759-.286-1.782-.187-2.354.143-.572.319-.814.682-.946.968l.979.473c.319-.704 1.034-.847 1.727-.671.759.198.88.836.781 1.298a4.434 4.434 0 0 0-2.002-.044c-1.166.209-1.727.869-1.672 1.881.088 1.023 1.133 1.694 2.233 1.54Zm.297-.946c-.759.198-1.386-.242-1.386-.77 0-1.056 1.551-.957 2.596-.748.077.55-.341 1.309-1.21 1.518Zm3.507.814h1.1v-2.717c0-1.243.649-1.804 1.133-1.837 1.353-.066 1.441.682 1.441 1.628v2.926h1.155v-2.86c0-.968-.088-1.419-.242-1.749-.264-.55-.946-1.111-2.112-.968-.836.099-1.298.781-1.397.924v-.77h-1.078v5.423Zm8.738-1.045c-.231.143-.704.132-.957-.154-.154-.176-.176-.605-.176-1.364v-1.859h1.342v-1.012h-1.331v-1.628h-1.067v1.32c0 .242-.022.308-.33.308h-.682v1.012h.946v2.772c0 .627.209 1.474 1.177 1.694a2.345 2.345 0 0 0 1.452-.132l-.374-.957Zm7.088-3.498c-.858.11-1.419.935-1.408 1.771.011 1.023.649 1.826 1.496 1.892.759.055 1.43-.352 1.639-.968l1.034.407c-.418 1.111-1.397 1.683-2.717 1.628-1.463-.055-2.585-1.298-2.585-2.97 0-1.661 1.287-2.772 2.596-2.849 1.441-.099 2.343.814 2.651 1.661l-1.023.363c-.429-.924-1.21-1.001-1.683-.935Zm3.316 1.793c0 1.584 1.254 2.937 2.893 2.937 1.628 0 2.882-1.353 2.882-2.937a2.855 2.855 0 0 0-2.882-2.871 2.857 2.857 0 0 0-2.893 2.871Zm1.177.011c0-1.1.836-1.848 1.727-1.848.891 0 1.716.748 1.716 1.848 0 1.166-.825 1.87-1.716 1.87s-1.727-.704-1.727-1.87Zm5.634 2.739h1.1v-2.717c0-1.243.649-1.804 1.133-1.837 1.353-.066 1.441.682 1.441 1.628v2.926h1.155v-2.86c0-.968-.088-1.419-.242-1.749-.264-.55-.946-1.111-2.112-.968-.836.099-1.298.781-1.397.924v-.77h-1.078v5.423Zm8.739-1.045c-.231.143-.704.132-.957-.154-.154-.176-.176-.605-.176-1.364v-1.859h1.342v-1.012h-1.331v-1.628h-1.067v1.32c0 .242-.022.308-.33.308h-.682v1.012h.946v2.772c0 .627.209 1.474 1.177 1.694a2.345 2.345 0 0 0 1.452-.132l-.374-.957Zm1.946-5.445c.429 0 .781-.33.781-.77s-.352-.77-.781-.77c-.44 0-.792.33-.792.77s.352.77.792.77Zm-.583 1.012v5.5h1.155v-5.5h-1.155Zm2.445 5.478h1.1v-2.717c0-1.243.649-1.804 1.133-1.837 1.353-.066 1.441.682 1.441 1.628v2.926h1.155v-2.86c0-.968-.088-1.419-.242-1.749-.264-.55-.946-1.111-2.112-.968-.836.099-1.298.781-1.397.924v-.77h-1.078v5.423Zm9.801 0h1.111v-5.456h-1.177v3.311c0 .462-.473 1.287-1.287 1.287-1.1 0-1.309-.77-1.309-1.353v-3.234h-1.177v3.377c0 .484.176 2.222 2.068 2.222.979 0 1.595-.506 1.716-.825l.055.671Z" fill="#ED8C00"/><path d="M313.72 136.444c8.681 0 15.719-7.039 15.719-15.722S322.401 105 313.72 105c-8.682 0-15.72 7.039-15.72 15.722s7.038 15.722 15.72 15.722Z" fill="#FAE0C4"/><path d="M313.966 126.037v-2.431h-5.525v-1.343l5.44-8.075h1.887v7.854h1.496v1.581h-1.496v2.414h-1.802Zm.017-4.012v-5.27l-3.672 5.27h3.672Zm-83.93 75.261c2.233 0 4.048-1.87 4.048-4.169 0-2.299-1.815-4.169-4.048-4.169-2.244 0-4.059 1.87-4.059 4.169 0 2.299 1.815 4.169 4.059 4.169Zm.011-1.144c-1.595 0-2.882-1.386-2.882-3.014 0-1.639 1.287-3.036 2.882-3.036 1.606 0 2.882 1.397 2.882 3.036 0 1.628-1.287 3.014-2.882 3.014Zm6.098.913h-1.177v-7.854h1.353l3.729 5.797v-5.797h1.166v7.865H240.1l-3.938-6.105v6.094Zm8.673 0c2.332 0 3.817-1.529 3.817-3.938 0-2.343-1.364-3.916-3.674-3.916h-2.838l-.022 7.854h2.717Zm-1.562-6.743 1.716-.011c.836-.011 2.508.627 2.508 2.739 0 2.101-1.452 2.915-2.486 2.915-.693 0-1.089.011-1.738.022v-5.665Zm12.252-1.111h-1.188v5.126c0 1.001-.671 1.804-1.782 1.804-1.122 0-1.826-.803-1.826-1.859v-5.082h-1.199v5.016c0 1.023.506 3.003 3.058 3.003 2.464 0 2.937-1.892 2.937-3.102v-4.906Zm2.465 6.743v-6.787h-1.177v7.898h4.598v-1.111h-3.421Zm8.806 1.1v-1.1h-3.586v-2.31h3.212v-1.111h-3.201v-2.244h3.553v-1.089h-4.708v7.854h4.73Zm6.872-7.843h-1.188v5.126c0 1.001-.671 1.804-1.782 1.804-1.122 0-1.826-.803-1.826-1.859v-5.082h-1.199v5.016c0 1.023.506 3.003 3.058 3.003 2.464 0 2.937-1.892 2.937-3.102v-4.906Zm2.024 7.865v-3.146h1.067l2.068 3.135h1.397l-2.299-3.3c.803 0 1.892-.869 1.892-2.233s-1.1-2.376-2.53-2.376h-2.739v7.898l1.144.022Zm.011-4.213v-2.662h1.562c.616 0 1.43.429 1.43 1.331 0 .902-.682 1.331-1.397 1.331h-1.595Z" fill="#50545F"/><path d="M288 183h-68v18h68v-18Z" stroke="#FAE0C4" stroke-miterlimit="10"/><path d="M368.083 148.794v-86.83h-71.014m-73.791-.001h-71.014v29.952" stroke="#50545F" stroke-width="2" stroke-linecap="round" stroke-linejoin="round"/><path d="m152.533 33.596 1.001-1.518h-1.397l-.473 1.518h.869Zm2.189 8.448v-1.1h-3.586v-2.31h3.212v-1.111h-3.201v-2.244h3.553V34.19h-4.708v7.854h4.73Zm2.055-1.1v-6.787H155.6v7.898h4.598v-1.111h-3.421Zm8.806 1.1v-1.1h-3.586v-2.31h3.212v-1.111h-3.201v-2.244h3.553V34.19h-4.708v7.854h4.73Zm.877-3.861c0 2.321 1.892 4.037 4.092 4.037 1.694 0 3.344-1.188 3.784-2.563l-1.199-.341c-.33.869-1.1 1.738-2.574 1.738-1.595 0-2.893-1.166-2.893-2.871 0-1.859 1.166-3.025 2.893-3.025 1.276 0 2.09.847 2.541 1.705l1.199-.275c-.616-1.485-2.068-2.552-3.751-2.552a4.124 4.124 0 0 0-4.092 4.147Zm10.735 3.883h1.199v-6.842h2.178v-1.111h-5.577v1.111h2.2v6.842Zm5.18 0V38.92h1.067l2.068 3.135h1.397l-2.299-3.3c.803 0 1.892-.869 1.892-2.233s-1.1-2.376-2.53-2.376h-2.739v7.898l1.144.022Zm.011-4.213v-2.662h1.562c.616 0 1.43.429 1.43 1.331 0 .902-.682 1.331-1.397 1.331h-1.595Zm5.182-3.652v7.876h1.177v-7.876h-1.177Zm2.45 3.982c0 2.321 1.892 4.037 4.092 4.037 1.694 0 3.344-1.188 3.784-2.563l-1.199-.341c-.33.869-1.1 1.738-2.574 1.738-1.595 0-2.893-1.166-2.893-2.871 0-1.859 1.166-3.025 2.893-3.025 1.276 0 2.09.847 2.541 1.705l1.199-.275c-.616-1.485-2.068-2.552-3.751-2.552a4.124 4.124 0 0 0-4.092 4.147Zm8.755-3.982v7.876h1.177v-7.876h-1.177Zm4.472 7.865h1.199v-6.842h2.178v-1.111h-5.577v1.111h2.2v6.842Zm6.576-8.47 1.001-1.518h-1.397l-.473 1.518h.869Zm2.189 8.448v-1.1h-3.586v-2.31h3.212v-1.111h-3.201v-2.244h3.553V34.19h-4.708v7.854h4.73Z" fill="#50545F"/><path d="M218 28h-75v18h75V28Z" stroke="#FAE0C4" stroke-miterlimit="10"/><path d="m305.343 71.634-9.849-9.85 9.973-9.851M162.085 84.027l-9.849 9.85-9.849-9.975" stroke="#50545F" stroke-width="2" stroke-linecap="round" stroke-linejoin="round"/><path d="M271.736 143.183c0 2.321 1.892 4.037 4.092 4.037 1.694 0 3.344-1.188 3.784-2.563l-1.199-.341c-.33.869-1.1 1.738-2.574 1.738-1.595 0-2.893-1.166-2.893-2.871 0-1.859 1.166-3.025 2.893-3.025 1.276 0 2.09.847 2.541 1.705l1.199-.275c-.616-1.485-2.068-2.552-3.751-2.552a4.124 4.124 0 0 0-4.092 4.147Zm8.54 1.122c0 1.584 1.254 2.937 2.893 2.937 1.628 0 2.882-1.353 2.882-2.937a2.855 2.855 0 0 0-2.882-2.871 2.857 2.857 0 0 0-2.893 2.871Zm1.177.011c0-1.1.836-1.848 1.727-1.848.891 0 1.716.748 1.716 1.848 0 1.166-.825 1.87-1.716 1.87s-1.727-.704-1.727-1.87Zm9.441 2.739h1.111v-5.456h-1.177v3.311c0 .462-.473 1.287-1.287 1.287-1.1 0-1.309-.77-1.309-1.353v-3.234h-1.177v3.377c0 .484.176 2.222 2.068 2.222.979 0 1.595-.506 1.716-.825l.055.671Zm2.305-.022v-5.379h1.089v.803c.176-.429.44-.693.979-.891.396-.143.979-.11 1.353.11l-.308.979c-.44-.209-1.265-.033-1.683.44-.374.429-.341.869-.341 2.299v1.65l-1.089-.011Zm5.972.154c.704-.099 1.243-.506 1.485-.847l.044.704 1.1.011-.033-3.608c-.011-.693-.462-1.518-1.342-1.848-.759-.286-1.782-.187-2.354.143-.572.319-.814.682-.946.968l.979.473c.319-.704 1.034-.847 1.727-.671.759.198.88.836.781 1.298a4.434 4.434 0 0 0-2.002-.044c-1.166.209-1.727.869-1.672 1.881.088 1.023 1.133 1.694 2.233 1.54Zm.297-.946c-.759.198-1.386-.242-1.386-.77 0-1.056 1.551-.957 2.596-.748.077.55-.341 1.309-1.21 1.518Zm3.507.814h1.1v-2.717c0-1.243.649-1.804 1.133-1.837 1.353-.066 1.441.682 1.441 1.628v2.926h1.155v-2.86c0-.968-.088-1.419-.242-1.749-.264-.55-.946-1.111-2.112-.968-.836.099-1.298.781-1.397.924v-.77h-1.078v5.423Zm8.738-1.045c-.231.143-.704.132-.957-.154-.154-.176-.176-.605-.176-1.364v-1.859h1.342v-1.012h-1.331v-1.628h-1.067v1.32c0 .242-.022.308-.33.308h-.682v1.012h.946v2.772c0 .627.209 1.474 1.177 1.694a2.345 2.345 0 0 0 1.452-.132l-.374-.957Zm6.89 1.177c.704-.099 1.243-.506 1.485-.847l.044.704 1.1.011-.033-3.608c-.011-.693-.462-1.518-1.342-1.848-.759-.286-1.782-.187-2.354.143-.572.319-.814.682-.946.968l.979.473c.319-.704 1.034-.847 1.727-.671.759.198.88.836.781 1.298a4.434 4.434 0 0 0-2.002-.044c-1.166.209-1.727.869-1.672 1.881.088 1.023 1.133 1.694 2.233 1.54Zm.297-.946c-.759.198-1.386-.242-1.386-.77 0-1.056 1.551-.957 2.596-.748.077.55-.341 1.309-1.21 1.518Zm3.609-7.194v8.03h1.188v-8.03h-1.188Zm5.264 6.963c-.231.143-.704.132-.957-.154-.154-.176-.176-.605-.176-1.364v-1.859h1.342v-1.012h-1.331v-1.628h-1.067v1.32c0 .242-.022.308-.33.308h-.682v1.012h.946v2.772c0 .627.209 1.474 1.177 1.694a2.345 2.345 0 0 0 1.452-.132l-.374-.957Zm.994-1.694c0-1.892 1.265-2.86 2.728-2.86 1.452 0 2.794 1.001 2.629 3.102l-4.224.044c0 .429.33 1.562 1.507 1.606.913.044 1.386-.418 1.628-.88l1.045.297c-.275.671-1.133 1.551-2.563 1.551-1.76 0-2.75-1.287-2.75-2.86Zm4.169-.649c0-.517-.55-1.32-1.661-1.21-.704.066-1.221.605-1.287 1.221l2.948-.011Zm2.244 3.366v-5.379h1.089v.803c.176-.429.44-.693.979-.891.396-.143.979-.11 1.353.11l-.308.979c-.44-.209-1.265-.033-1.683.44-.374.429-.341.869-.341 2.299v1.65l-1.089-.011Zm3.964.022h1.1v-2.717c0-1.243.649-1.804 1.133-1.837 1.353-.066 1.441.682 1.441 1.628v2.926h1.155v-2.86c0-.968-.088-1.419-.242-1.749-.264-.55-.946-1.111-2.112-.968-.836.099-1.298.781-1.397.924v-.77h-1.078v5.423Zm8.055.132c.704-.099 1.243-.506 1.485-.847l.044.704 1.1.011-.033-3.608c-.011-.693-.462-1.518-1.342-1.848-.759-.286-1.782-.187-2.354.143-.572.319-.814.682-.946.968l.979.473c.319-.704 1.034-.847 1.727-.671.759.198.88.836.781 1.298a4.434 4.434 0 0 0-2.002-.044c-1.166.209-1.727.869-1.672 1.881.088 1.023 1.133 1.694 2.233 1.54Zm.297-.946c-.759.198-1.386-.242-1.386-.77 0-1.056 1.551-.957 2.596-.748.077.55-.341 1.309-1.21 1.518Zm6.23-.231c-.231.143-.704.132-.957-.154-.154-.176-.176-.605-.176-1.364v-1.859h1.342v-1.012h-1.331v-1.628h-1.067v1.32c0 .242-.022.308-.33.308h-.682v1.012h.946v2.772c0 .627.209 1.474 1.177 1.694a2.345 2.345 0 0 0 1.452-.132l-.374-.957Zm1.947-5.445c.429 0 .781-.33.781-.77s-.352-.77-.781-.77c-.44 0-.792.33-.792.77s.352.77.792.77Zm-.583 1.012v5.5h1.155v-5.5h-1.155Zm5.838-2.453c-1.166-.396-2.112-.011-2.574.792-.187.352-.231.77-.231 1.287 0 .374-.033.396-.385.396h-.572l.011 1.012h.968v4.444l1.155-.011v-4.433h1.331l-.011-1.012h-1.32c0-.583-.176-1.892 1.265-1.474l.363-1.001Z" fill="#ED8C00"/></svg>